<svg width="1896" height="401" viewBox="0 0 1896 401" fill="none" xmlns="http://www.w3.org/2000/svg">
<path fill-rule="evenodd" clip-rule="evenodd" d="M451.921 151.011C448.931 162.167 443.136 170.355 434.535 175.583C425.924 180.81 413.847 183.429 398.269 183.429H348.777L366.151 118.598H415.643C431.209 118.598 441.896 121.212 447.702 126.439C453.497 131.672 454.911 139.861 451.921 151.011ZM503.174 149.614C509.468 126.155 506.859 108.144 495.351 95.5973C483.841 83.0503 463.674 76.7803 434.871 76.7803H324.391L257.897 324.92H311.572L338.381 224.895H373.581C381.474 224.895 387.687 226.175 392.231 228.731C396.785 231.292 399.451 235.824 400.274 242.321L409.848 324.92H467.359L458.029 247.902C456.128 230.707 448.259 220.6 434.431 217.581C452.06 212.475 466.826 203.985 478.718 192.134C490.599 180.289 498.758 166.119 503.174 149.614Z" fill="white"></path>
<path fill-rule="evenodd" clip-rule="evenodd" d="M633.625 236.051C629.14 252.776 622.231 265.56 612.901 274.386C603.56 283.218 592.386 287.629 579.382 287.629C566.122 287.629 557.128 283.276 552.387 274.56C547.623 265.85 547.461 253.251 551.889 236.746C556.305 220.253 563.352 207.359 573.053 198.057C582.742 188.773 594.09 184.12 607.105 184.12C620.11 184.12 628.919 188.6 633.485 197.542C638.053 206.484 638.11 219.32 633.625 236.051ZM657.153 148.224L650.431 173.318C647.521 164.254 641.9 157.056 633.578 151.713C625.245 146.37 614.918 143.692 602.608 143.692C587.506 143.692 572.983 147.587 559.052 155.37C545.12 163.158 532.938 174.135 522.519 188.304C512.099 202.479 504.461 218.625 499.604 236.746C494.748 254.874 493.774 270.846 496.695 284.667C499.616 298.495 505.944 309.123 515.691 316.558C525.428 323.999 537.969 327.708 553.303 327.708C565.612 327.708 577.342 325.153 588.469 320.041C599.595 314.936 609.041 307.843 616.818 298.784L609.807 324.921H661.731L709.079 148.224H657.153Z" fill="white"></path>
<path fill-rule="evenodd" clip-rule="evenodd" d="M895.79 148.224H744.882L734.334 187.609H822.155L706.042 287.976L696.132 324.921H851.92L862.478 285.542H768.388L886.263 183.772L895.79 148.224Z" fill="white"></path>
<path fill-rule="evenodd" clip-rule="evenodd" d="M1028.65 235.703C1023.98 253.123 1017.06 266.145 1007.9 274.74C998.748 283.334 987.667 287.628 974.663 287.628C947.471 287.628 938.523 270.329 947.796 235.703C952.409 218.508 959.363 205.556 968.659 196.846C977.965 188.13 989.232 183.772 1002.48 183.772C1015.48 183.772 1024.26 188.13 1028.78 196.846C1033.3 205.556 1033.26 218.508 1028.65 235.703ZM1059.03 154.842C1047.08 147.412 1031.82 143.692 1013.22 143.692C994.401 143.692 976.969 147.412 960.917 154.842C944.864 162.283 931.198 172.97 919.921 186.907C908.631 200.85 900.495 217.112 895.511 235.703C890.527 254.294 889.948 270.55 893.773 284.493C897.586 298.436 905.514 309.123 917.591 316.558C929.657 323.999 945.095 327.708 963.919 327.708C982.509 327.708 999.767 323.999 1015.71 316.558C1031.62 309.123 1045.24 298.436 1056.53 284.493C1067.8 270.55 1075.94 254.294 1080.92 235.703C1085.91 217.112 1086.49 200.85 1082.67 186.907C1078.85 172.97 1070.97 162.283 1059.03 154.842Z" fill="white"></path>
<path fill-rule="evenodd" clip-rule="evenodd" d="M1602.14 236.051C1597.65 252.776 1590.74 265.56 1581.41 274.386C1572.08 283.218 1560.89 287.629 1547.88 287.629C1534.65 287.629 1525.64 283.276 1520.9 274.56C1516.13 265.85 1515.97 253.251 1520.4 236.746C1524.82 220.253 1531.86 207.359 1541.56 198.057C1551.25 188.773 1562.6 184.12 1575.62 184.12C1588.62 184.12 1597.43 188.6 1602 197.542C1606.56 206.484 1606.62 219.32 1602.14 236.051ZM1625.66 148.224L1618.94 173.318C1616.03 164.254 1610.41 157.056 1602.09 151.713C1593.76 146.37 1583.43 143.692 1571.12 143.692C1556.02 143.692 1541.49 147.587 1527.56 155.37C1513.63 163.158 1501.45 174.135 1491.03 188.304C1480.61 202.479 1472.97 218.625 1468.12 236.746C1463.26 254.874 1462.3 270.846 1465.21 284.667C1468.13 298.495 1474.44 309.123 1484.2 316.558C1493.94 323.999 1506.48 327.708 1521.81 327.708C1534.12 327.708 1545.85 325.153 1556.98 320.041C1568.11 314.936 1577.55 307.843 1585.33 298.784L1578.32 324.921H1630.24L1677.59 148.224H1625.66Z" fill="white"></path>
<path fill-rule="evenodd" clip-rule="evenodd" d="M1244.17 195.624L1257.4 147.529C1252.9 145.205 1246.95 144.041 1239.52 144.041C1227.66 144.041 1216.24 147.002 1205.24 152.93C1195.8 158.016 1187.75 165.155 1180.96 174.1L1187.85 148.2L1172.81 148.225H1135.94L1088.23 324.921H1140.87L1165.62 232.569C1169.22 219.095 1175.69 208.582 1185.04 201.031C1194.37 193.48 1206.02 189.701 1219.96 189.701C1228.56 189.701 1236.62 191.677 1244.17 195.624Z" fill="white"></path>
<path fill-rule="evenodd" clip-rule="evenodd" d="M1390.7 236.743C1386.27 253.248 1379.41 265.847 1370.11 274.557C1360.79 283.273 1349.64 287.625 1336.64 287.625C1323.62 287.625 1314.76 283.215 1310.04 274.383C1305.31 265.557 1305.19 252.778 1309.68 236.047C1314.17 219.317 1321.14 206.48 1330.62 197.538C1340.1 188.596 1351.36 184.116 1364.38 184.116C1377.15 184.116 1385.83 188.77 1390.43 198.06C1395.02 207.355 1395.11 220.255 1390.7 236.743ZM1427.49 155.366C1417.72 147.583 1405.28 143.695 1390.19 143.695C1376.94 143.695 1364.33 146.714 1352.39 152.753C1340.42 158.803 1330.72 167.038 1323.28 177.498L1323.44 176.339L1332.29 148.196H1322.11V148.221H1280.9L1267.82 197.083C1267.66 197.651 1267.54 198.181 1267.39 198.755L1213.41 400.198H1266.04L1293.22 298.787C1295.89 307.839 1301.43 314.932 1309.82 320.038C1318.21 325.149 1328.56 327.705 1340.88 327.705C1356.22 327.705 1370.8 323.996 1384.65 316.555C1398.49 309.125 1410.52 298.491 1420.72 284.664C1430.93 270.848 1438.46 254.87 1443.32 236.743C1448.18 218.621 1449.18 202.476 1446.37 188.301C1443.55 174.131 1437.24 163.155 1427.49 155.366Z" fill="white"></path>
<path fill-rule="evenodd" clip-rule="evenodd" d="M1895.54 148.273L1895.57 148.224H1863.69C1862.67 148.224 1861.77 148.253 1860.84 148.273H1844.3L1835.84 160.061C1835.16 160.949 1834.48 161.843 1833.75 162.88L1832.83 164.245L1765.59 257.893L1751.64 148.224H1696.56L1724.46 314.872L1662.86 400.201H1664.62H1696.07H1717.73L1732.66 379.055C1733.1 378.425 1733.48 377.909 1733.95 377.243L1751.37 352.546L1751.87 351.839L1829.81 241.345L1895.49 148.346L1895.57 148.273H1895.54Z" fill="white"></path>
<path fill-rule="evenodd" clip-rule="evenodd" d="M122.634 105.208L106.878 163.191L197.034 104.882L138.075 324.866L197.948 324.921L285.046 0L122.634 105.208Z" fill="white"></path>
<path fill-rule="evenodd" clip-rule="evenodd" d="M25.5947 232.442L0.807739 324.92H123.534C123.534 324.92 173.732 136.837 173.746 136.783C173.699 136.813 25.5947 232.442 25.5947 232.442Z" fill="white"></path>
</svg>